<svg width="145" height="44" viewBox="0 0 145 44" fill="none" xmlns="http://www.w3.org/2000/svg">
<path d="M8.83287 29.2206C8.83287 29.2206 15.1977 24.9013 14.9898 6.58313C14.9898 6.58313 23.8226 11.1106 28.5507 22.1171C28.5507 22.1171 21.5624 14.5973 18.6788 12.7499C15.8211 10.9025 20.1336 23.262 8.83287 29.2206Z" fill="white"/>
<path d="M18.2888 8.19632C18.2888 8.19632 19.7176 3.48668 19.7176 0.416304C19.7176 -2.68009 30.3948 12.3595 32.0575 20.9982C32.0575 20.9982 26.1084 10.1738 22.3934 9.00294L20.7827 10.0958L18.2888 8.19632Z" fill="white"/>
<path d="M7.29976 32.2649C9.3261 31.1981 26.7838 21.2064 41.0461 24.1727C41.0461 24.1727 33.5123 32.9675 31.8236 33.9302C30.135 34.893 33.3304 31.1981 33.0966 30.8338C32.8628 30.4695 25.9784 30.4695 23.1208 31.3022C20.2631 32.1348 27.3553 28.2578 33.876 29.2726C35.5386 27.7895 36.4219 26.2022 36.4219 26.2022C36.4219 26.2022 16.0286 27.7374 8.8325 32.9935L7.09193 34.1124L6.59833 32.7853L7.29976 32.2649Z" fill="white"/>
<path d="M36.552 32.4991C33.6164 39.2643 26.888 43.9999 19.0684 43.9999C8.54699 43.9999 0 35.4393 0 24.8752C0 18.8905 2.75374 13.5564 7.06621 10.0437C4.62421 13.1921 3.1694 17.1472 3.1694 21.4145C3.1694 31.6664 11.4566 39.9668 21.6922 39.9668C27.7712 39.9929 33.1748 37.0526 36.552 32.4991Z" fill="white"/>
<path d="M45.2291 31.6144V13.036H53.854C56.1142 13.036 57.8028 13.5304 58.9199 14.4931C60.037 15.4559 60.6085 16.8349 60.6085 18.6043C60.6085 20.2696 60.011 21.6226 58.8419 22.6634C57.6729 23.7043 56.0362 24.2247 53.958 24.2247L56.1921 23.7563C56.8156 23.7563 57.3871 23.9645 57.9327 24.3548C58.4523 24.7451 58.8679 25.3175 59.1797 26.0981L61.3619 31.6404H56.1661L53.7761 25.4216C53.6202 25.0313 53.3604 24.7711 52.9967 24.615C52.633 24.4588 52.2434 24.3808 51.8277 24.3808H50.0611V31.6144H45.2291ZM50.0092 20.738H53.0747C54.1398 20.738 54.8932 20.5818 55.3608 20.2436C55.8284 19.9313 56.0622 19.4109 56.0622 18.7344C56.0622 18.0319 55.8284 17.5115 55.3608 17.1992C54.8932 16.887 54.1398 16.7309 53.0747 16.7309H50.0092V20.738Z" fill="white"/>
<path d="M68.2981 31.8225C67.181 31.8225 66.1678 31.5363 65.2846 30.9899C64.4013 30.4435 63.6999 29.6368 63.2063 28.6221C62.7127 27.6073 62.4529 26.3843 62.4529 25.0313C62.4529 23.6522 62.7127 22.4293 63.2063 21.3625C63.6999 20.3216 64.4013 19.489 65.2846 18.8905C66.1678 18.2921 67.155 18.0059 68.2981 18.0059C69.3112 18.0059 70.2205 18.2661 71.0258 18.7604C71.8312 19.2548 72.3767 19.9053 72.6885 20.7119L72.3767 20.8941V18.3962H77.0269V31.6664H72.3767V29.2465H72.6885C72.4027 30.0532 71.8312 30.7037 71.0258 31.172C70.1945 31.5883 69.2853 31.8225 68.2981 31.8225ZM69.7529 28.2838C70.5582 28.2838 71.2077 27.9976 71.6753 27.4251C72.1429 26.8527 72.3767 26.02 72.3767 24.9532C72.3767 23.8344 72.1429 23.0017 71.7013 22.4293C71.2596 21.8568 70.6102 21.5706 69.7789 21.5706C68.9735 21.5706 68.3241 21.8829 67.8564 22.4813C67.3888 23.0798 67.155 23.9384 67.155 25.0313C67.155 26.0981 67.3888 26.9047 67.8305 27.4772C68.2461 28.0236 68.8956 28.2838 69.7529 28.2838Z" fill="white"/>
<path d="M80.3262 31.6145V12.4116H85.0543V21.2324L84.7166 20.66C85.0024 19.8794 85.5219 19.2289 86.3273 18.7345C87.1326 18.2401 88.0419 17.9799 89.055 17.9799C90.1981 17.9799 91.2113 18.2661 92.0946 18.8386C92.9778 19.411 93.6533 20.2177 94.1728 21.2324C94.6664 22.2732 94.9262 23.4702 94.9262 24.8492C94.9262 26.2283 94.6664 27.4512 94.1728 28.4921C93.6792 29.5329 92.9778 30.3395 92.0946 30.9379C91.2113 31.5104 90.1981 31.8226 89.055 31.8226C88.0419 31.8226 87.1066 31.5884 86.3273 31.1201C85.5219 30.6517 85.0024 30.0012 84.7166 29.1946L85.0024 28.5181V31.6145H80.3262ZM87.6262 28.2839C88.4575 28.2839 89.107 27.9977 89.5486 27.3992C89.9903 26.8007 90.2241 25.9681 90.2241 24.8492C90.2241 23.7824 90.0163 22.9758 89.5746 22.4033C89.133 21.8309 88.5095 21.5447 87.6522 21.5447C86.7949 21.5447 86.1454 21.8309 85.7038 22.4294C85.2622 23.0018 85.0283 23.8344 85.0283 24.9013C85.0283 26.0201 85.2622 26.8528 85.7038 27.4252C86.1195 27.9977 86.7689 28.2839 87.6262 28.2839Z" fill="white"/>
<path d="M97.2902 11.8651H102.226V16.1064H97.2902V11.8651ZM97.4201 18.3441H102.148V31.6144H97.4201V18.3441Z" fill="white"/>
<path d="M110.461 12.4116H105.733V31.6145H110.461V12.4116Z" fill="white"/>
<path d="M120.464 31.8226C118.957 31.8226 117.684 31.5363 116.593 30.9899C115.502 30.4435 114.67 29.6369 114.073 28.5961C113.475 27.5553 113.19 26.3323 113.19 24.9012C113.19 23.4961 113.475 22.2732 114.073 21.2324C114.67 20.1916 115.502 19.3849 116.593 18.8385C117.684 18.2661 118.957 17.9799 120.464 17.9799C121.918 17.9799 123.191 18.2661 124.282 18.8385C125.374 19.411 126.205 20.2176 126.802 21.2324C127.4 22.2732 127.686 23.4961 127.686 24.9012C127.686 26.3323 127.4 27.5553 126.802 28.5961C126.205 29.6369 125.374 30.4175 124.282 30.9899C123.191 31.5363 121.918 31.8226 120.464 31.8226ZM120.464 28.2838C121.269 28.2838 121.918 28.0236 122.36 27.4772C122.802 26.9308 123.035 26.0721 123.035 24.9012C123.035 23.7303 122.828 22.8716 122.386 22.3512C121.944 21.8048 121.321 21.5446 120.49 21.5446C119.632 21.5446 118.983 21.8048 118.541 22.3512C118.1 22.8977 117.866 23.7563 117.866 24.9012C117.866 26.0721 118.1 26.9568 118.541 27.4772C118.957 28.0236 119.606 28.2838 120.464 28.2838Z" fill="white"/>
<path d="M137.35 31.8226C135.843 31.8226 134.57 31.5363 133.479 30.9899C132.388 30.4435 131.556 29.6369 130.959 28.5961C130.361 27.5553 130.076 26.3323 130.076 24.9012C130.076 23.4961 130.361 22.2732 130.959 21.2324C131.556 20.1916 132.388 19.3849 133.479 18.8385C134.57 18.2661 135.843 17.9799 137.35 17.9799C138.804 17.9799 140.077 18.2661 141.169 18.8385C142.26 19.411 143.091 20.2176 143.688 21.2324C144.286 22.2732 144.572 23.4961 144.572 24.9012C144.572 26.3323 144.286 27.5553 143.688 28.5961C143.091 29.6369 142.26 30.4175 141.169 30.9899C140.077 31.5363 138.804 31.8226 137.35 31.8226ZM137.35 28.2838C138.155 28.2838 138.804 28.0236 139.246 27.4772C139.688 26.9308 139.922 26.0721 139.922 24.9012C139.922 23.7303 139.714 22.8716 139.272 22.3512C138.83 21.8048 138.207 21.5446 137.376 21.5446C136.518 21.5446 135.869 21.8048 135.427 22.3512C134.986 22.8977 134.752 23.7563 134.752 24.9012C134.752 26.0721 134.986 26.9568 135.427 27.4772C135.843 28.0236 136.492 28.2838 137.35 28.2838Z" fill="white"/>
</svg>
