<svg version="1.1" id="Layer_1" xmlns="http://www.w3.org/2000/svg" xmlns:xlink="http://www.w3.org/1999/xlink" x="0px" y="0px"
	 width="100%" viewBox="0 0 800 592" enable-background="new 0 0 800 592" xml:space="preserve">
<path fill="#000000" opacity="1.000000" stroke="none" 
	d="
M309.890137,498.885010 
	C307.757690,501.776093 307.228394,504.982635 305.890625,507.827362 
	C305.315155,509.051178 304.769867,510.453461 303.044739,509.977173 
	C301.316650,509.500000 301.587463,507.939758 301.675232,506.646240 
	C302.062164,500.942261 305.827087,496.611481 308.143799,491.741913 
	C309.433472,489.031097 309.432373,487.406738 307.958008,485.013000 
	C302.530090,476.200500 299.738281,466.297913 302.049652,456.348816 
	C305.251312,442.567383 309.080444,428.666687 320.263672,418.520996 
	C322.757812,416.258301 322.964874,415.696869 324.554810,411.142914 
	C318.408447,410.681427 312.848267,408.281372 306.900085,407.267517 
	C301.040497,406.268829 295.295776,404.786224 289.544312,403.229523 
	C281.361572,401.014801 274.653809,396.836090 269.365265,390.370605 
	C265.605347,385.773987 259.575073,384.252472 255.742233,379.723480 
	C251.526688,374.742279 248.506439,369.473328 248.688477,362.692627 
	C248.831665,357.360016 245.206558,353.491608 242.715530,349.306305 
	C240.173843,345.035889 238.706284,340.781860 238.499023,335.741882 
	C238.194107,328.327026 235.433899,321.201996 235.456451,313.667755 
	C235.497131,300.077332 234.597641,286.454498 238.166550,273.081299 
	C239.410858,268.418701 238.651657,263.506012 239.309845,258.696777 
	C239.815811,254.999725 235.773590,255.964951 234.076981,256.620850 
	C228.544998,258.759613 223.098923,257.920349 217.944626,256.256439 
	C210.227997,253.765366 202.686707,250.523514 196.852936,244.567673 
	C191.233856,238.831009 189.455994,224.669220 193.005264,216.817825 
	C201.438950,198.161514 216.348083,189.488800 236.295685,187.505661 
	C246.680588,186.473221 257.282684,184.005707 265.657196,177.595322 
	C272.409454,172.426682 277.415771,165.023987 283.495697,158.909790 
	C286.400970,155.988144 287.401581,153.281448 287.116730,148.955231 
	C286.532959,140.088760 285.460419,130.989746 289.885834,122.495117 
	C291.638702,119.130455 293.464569,116.857063 297.531006,118.768127 
	C305.847961,122.676773 314.512726,125.945877 322.394165,131.936340 
	C334.283173,126.924301 347.533295,124.521576 360.643860,122.384308 
	C372.544739,120.444244 384.844330,119.895897 397.004761,121.156113 
	C406.849426,122.176338 416.664429,123.487305 426.486664,124.716919 
	C429.642242,125.111954 431.782104,123.848701 433.730560,121.378601 
	C438.689026,115.092621 444.293701,109.511604 451.773621,106.134682 
	C456.507141,103.997688 460.911072,105.695976 463.058563,110.501495 
	C466.492401,118.185593 465.473389,126.211189 464.663025,134.101654 
	C464.331818,137.326508 465.123932,138.995651 467.633453,140.635010 
	C479.658264,148.490341 488.883698,159.692459 500.255432,168.270828 
	C509.651367,175.358841 519.869080,179.789871 532.586182,176.824585 
	C543.723450,174.227692 562.376770,179.381866 563.615356,194.649277 
	C564.299622,203.083725 557.431824,214.083420 548.716064,217.339401 
	C543.756348,219.192215 539.232971,222.184128 533.768250,222.550018 
	C533.407959,225.969345 534.961548,228.402939 535.742798,231.063889 
	C541.589722,250.977386 546.999817,271.129730 546.012451,292.029724 
	C545.385315,305.303741 545.025879,318.911072 539.539673,331.511810 
	C538.949219,332.867950 538.281677,334.216461 537.460388,335.441437 
	C534.752930,339.479675 532.414001,343.503418 533.077698,348.760010 
	C533.505310,352.147461 531.256348,354.605286 528.954407,356.930603 
	C515.254578,370.769836 498.942291,381.018097 482.453949,391.053436 
	C478.343719,393.555054 474.552948,396.582123 470.439240,399.077393 
	C466.123108,401.695404 467.030670,403.984314 470.325287,406.627716 
	C479.418854,413.923920 486.071655,423.290466 491.550262,433.363525 
	C501.011902,450.759796 502.001038,469.016785 495.478546,487.684174 
	C495.159668,488.596832 494.659058,489.560974 493.969604,490.211273 
	C487.598114,496.221222 489.030975,503.118622 491.443939,510.246948 
	C492.404938,513.086121 494.195953,515.965027 492.519836,519.044434 
	C491.043060,519.456360 490.305084,518.910461 489.936493,517.831360 
	C488.976410,515.020874 487.914581,512.234558 487.148132,509.370483 
	C485.119507,501.790039 485.318237,502.132690 478.042664,505.090057 
	C469.228424,508.672852 460.077087,510.087219 450.969910,505.787109 
	C447.615204,504.203156 444.776428,504.850433 442.331573,507.344330 
	C433.206329,516.652771 421.038818,521.378418 410.402802,528.395020 
	C401.279175,534.413818 391.660461,532.009216 384.889313,523.601562 
	C382.501587,520.636719 380.141815,517.691589 378.766937,514.007874 
	C378.001129,511.956024 377.176392,509.527496 374.858734,509.000336 
	C366.037933,515.698914 357.189575,516.284180 346.768951,513.244812 
	C338.789093,510.917297 331.744995,507.427765 324.887054,503.188019 
	C322.088318,501.457764 319.667877,499.095001 317.155243,496.927338 
	C313.262390,493.568848 312.365021,493.744995 309.890137,498.885010 
M255.093506,363.987549 
	C254.797836,372.160645 259.091400,377.868500 265.512329,381.965637 
	C270.590302,385.205841 275.665100,388.263428 279.183807,393.327820 
	C280.271088,394.892761 282.164551,395.385620 283.746338,396.289154 
	C292.858185,401.493866 303.280304,402.398956 313.188049,404.368347 
	C328.424103,407.396851 343.915833,409.890350 359.355133,411.105072 
	C373.138763,412.189545 387.302460,414.948120 401.102051,410.537720 
	C402.933838,409.952301 406.103119,410.906677 406.484985,407.661713 
	C405.919373,406.723022 405.260956,406.751556 404.588654,406.813538 
	C392.397644,407.937561 381.250854,403.107300 369.695282,400.644104 
	C361.240173,398.841766 353.597504,394.681458 345.475037,391.875946 
	C335.777008,388.526184 326.341095,384.425110 316.722382,380.835052 
	C311.157013,378.757874 309.524933,372.546661 304.775116,369.826965 
	C296.712738,365.210632 292.224152,357.150238 285.901550,350.871338 
	C284.545258,349.524414 283.636993,347.552216 282.979187,345.705322 
	C279.538177,336.044189 276.100311,326.398651 273.253448,316.514313 
	C270.118286,305.628998 269.700317,294.875793 273.319885,284.351532 
	C278.637024,268.891266 286.761261,254.675674 296.255493,241.483246 
	C307.075531,226.448547 320.761292,214.237076 335.739777,203.121948 
	C353.424591,189.998535 373.254150,184.404633 394.511200,182.907364 
	C407.120514,182.019196 419.549316,184.877274 431.676270,188.282867 
	C440.082153,190.643463 448.413025,193.413696 455.887482,198.158646 
	C467.866608,205.763275 478.395691,215.143478 488.201904,225.292862 
	C503.444580,241.068939 508.750427,261.353516 512.067688,282.059296 
	C514.004395,294.148315 513.387207,306.456451 509.813324,318.567627 
	C508.504120,323.004150 507.072388,327.707794 507.252686,332.678833 
	C507.759705,346.654968 501.807709,357.993988 492.164185,367.700806 
	C485.567139,374.341156 476.818054,378.189423 470.169586,384.780182 
	C469.281738,385.660309 467.544708,386.381714 465.895050,384.688660 
	C466.895477,381.625366 469.432953,379.744324 471.882660,377.931091 
	C475.746948,375.070892 480.239136,372.916656 483.657074,369.624298 
	C491.640717,361.934021 496.575287,352.062256 501.314178,342.215912 
	C502.589783,339.565491 501.621460,336.289368 500.849579,333.368622 
	C500.268860,331.171265 498.718628,330.798950 497.041443,331.966583 
	C495.289856,333.186035 493.783386,334.653687 493.293884,337.011475 
	C489.674469,354.445221 478.251862,365.925568 463.478424,374.204254 
	C452.678802,380.256042 441.416138,385.523987 429.181213,388.453491 
	C423.088379,389.912323 422.068329,392.094604 423.766541,395.671783 
	C434.694397,394.875793 444.317200,390.627075 453.629700,385.019043 
	C451.500488,393.243652 443.709381,394.802765 438.086975,398.605316 
	C438.688263,405.454010 439.217407,405.749329 445.232330,402.896149 
	C446.129059,402.470764 447.064301,402.091339 448.019897,401.830475 
	C460.429169,398.442841 472.277832,393.259094 483.035797,386.600159 
	C496.092468,378.518402 508.056366,368.617004 520.174255,359.097107 
	C525.688416,354.765137 530.865417,349.675903 528.023254,341.308990 
	C527.588013,340.027679 528.304688,338.746643 529.042358,337.567505 
	C536.414185,325.783569 540.419373,313.092499 540.165649,299.026428 
	C539.955444,287.365051 539.732422,275.648560 537.501221,264.255402 
	C534.890198,250.922745 530.885986,237.864578 527.543335,224.672821 
	C526.038696,218.734848 527.464172,216.912598 533.613586,216.731934 
	C541.664734,216.495407 548.224854,213.491913 553.725464,207.386795 
	C557.666870,203.012238 558.778992,198.443787 556.887268,193.207031 
	C554.463257,186.496735 548.823608,181.998535 542.390625,181.756119 
	C533.471008,181.419983 524.486023,184.181641 515.393555,182.551743 
	C515.234436,182.523224 514.983337,183.007782 514.586548,183.475021 
	C516.160217,186.418732 518.000244,189.354630 519.335449,192.504517 
	C520.605164,195.499908 522.793274,198.787842 518.712097,202.250702 
	C516.691956,199.780991 515.079956,197.432510 513.550049,194.881546 
	C510.227509,189.341492 507.304016,183.523880 503.083405,178.555008 
	C492.449280,166.035522 479.909576,155.748230 465.558105,147.871780 
	C453.006134,140.982925 441.398102,132.060287 426.322906,130.446609 
	C413.858276,129.112396 401.677826,124.725746 388.932556,126.534103 
	C381.222290,127.628052 373.454407,127.591690 365.705750,128.867355 
	C355.730560,130.509598 345.610809,131.233261 335.873291,134.236786 
	C325.210266,137.525757 315.111328,142.511749 305.798981,148.226608 
	C294.268097,155.302948 284.315155,165.028488 275.614471,175.451355 
	C269.458771,182.825470 261.423798,185.569839 253.136856,188.282700 
	C243.419678,191.463806 232.995178,191.447510 223.264389,195.257355 
	C212.661469,199.408661 203.814377,204.582947 199.032898,215.654678 
	C195.036575,224.908340 197.678040,240.010651 205.985336,245.361511 
	C217.061615,252.495941 228.933945,255.606705 241.738632,249.461853 
	C251.428131,244.811981 260.103241,238.878830 266.870941,230.395477 
	C267.851196,229.166702 268.780273,227.040466 270.727539,228.648773 
	C272.233215,229.892380 271.417572,231.723801 270.567993,233.219666 
	C270.328491,233.641357 269.920013,233.974258 269.562714,234.320755 
	C264.920807,238.822525 260.803040,244.125610 255.492294,247.609543 
	C249.122696,251.788101 247.944901,257.916931 246.319809,264.243469 
	C243.697388,274.452637 243.774872,285.029572 242.727875,295.391663 
	C241.519287,307.353241 240.988876,319.627930 244.074997,331.659363 
	C245.833389,338.514557 249.538651,344.456268 252.588531,350.611664 
	C254.715881,354.905151 252.440048,359.391937 255.093506,363.987549 
M444.459351,268.984528 
	C438.266846,262.854095 434.814758,254.463181 428.119385,248.143021 
	C421.367889,256.489105 415.081268,264.260529 408.671143,272.184662 
	C413.750580,275.230804 419.476776,274.955444 424.931030,277.901947 
	C416.710052,283.307953 409.059662,286.576599 399.978119,285.718506 
	C395.729523,285.317108 391.250824,284.174683 387.196838,286.281311 
	C376.330017,291.928131 365.884552,288.201080 355.410431,285.112396 
	C353.995758,284.695190 352.815033,283.418732 353.078033,281.657440 
	C353.315704,280.065918 354.753723,279.799713 356.036652,279.381104 
	C359.983246,278.093536 363.187134,278.982025 365.528595,283.112549 
	C368.157776,280.833466 370.967194,279.402649 372.592499,275.891235 
	C359.839935,266.339264 350.842712,253.590012 342.822113,239.689407 
	C339.846588,249.676727 335.496063,258.733215 331.010162,267.676666 
	C325.686432,278.290405 320.384491,289.052826 310.884247,296.812653 
	C307.777405,299.350281 308.051971,302.398590 308.852936,306.280640 
	C314.657562,301.689758 318.932953,296.227692 324.503052,292.072235 
	C332.316742,286.242981 341.047150,285.646088 350.045868,285.571594 
	C354.177887,285.537354 357.743591,287.573090 360.954529,290.047638 
	C362.336212,291.112427 364.132446,292.290619 361.931763,294.989685 
	C357.200409,291.996338 352.483948,289.051788 346.160645,289.945343 
	C331.790619,291.976074 331.751953,291.702515 329.512695,294.928955 
	C337.517578,291.164795 345.132324,290.802277 352.554474,293.176483 
	C359.761169,295.481720 367.139801,298.079376 369.977020,306.206238 
	C368.744873,308.453796 366.117432,308.489441 364.851227,310.204651 
	C370.236755,322.511810 369.477997,330.665070 362.359955,337.421875 
	C353.279816,346.041168 340.410370,348.458740 330.717072,343.309540 
	C319.505768,337.353912 316.082672,327.640900 320.789062,314.918854 
	C318.664429,316.236053 317.599121,317.362732 315.738495,315.758240 
	C311.987976,312.523987 315.563354,309.254486 315.526062,304.808411 
	C313.756378,308.516296 309.219177,308.820831 309.778870,312.462708 
	C310.292633,315.805939 310.334595,319.198456 311.905853,322.571808 
	C313.542450,326.085449 316.972717,329.012421 317.062225,333.471649 
	C313.457062,333.905396 310.385803,334.274933 307.221649,334.655609 
	C306.850037,337.914764 307.823608,340.429352 309.133575,343.006531 
	C310.049713,344.808929 313.294617,346.137268 311.657715,348.378876 
	C310.228882,350.335510 307.130920,350.057770 304.733398,350.128113 
	C302.094208,350.205566 299.420959,349.640198 297.067108,348.274536 
	C295.724457,347.495575 294.483643,346.713684 292.769531,347.998077 
	C292.804260,348.513031 292.595245,349.371552 292.925903,349.724365 
	C298.091003,355.235504 302.353180,361.530212 308.027588,366.614349 
	C318.233276,375.758392 330.335449,380.227020 343.711304,381.978424 
	C354.713135,383.418945 365.651031,385.403809 376.833252,384.741150 
	C378.608673,384.635925 381.007935,383.895905 381.626556,387.160614 
	C378.930237,388.753662 375.981903,389.684753 372.932831,390.206390 
	C370.852814,390.562225 368.727722,390.878906 368.478912,393.354523 
	C368.197845,396.151215 370.656067,396.172516 372.534058,396.739288 
	C379.277527,398.774658 386.667725,397.927490 393.099731,401.523499 
	C394.587494,402.355316 396.754333,402.650970 398.434753,402.317261 
	C401.843414,401.640472 406.998260,403.479370 406.911865,396.835846 
	C406.879578,394.354553 409.084778,394.121796 410.966766,395.314453 
	C412.207886,396.100983 413.313293,397.178101 414.282990,398.295593 
	C415.299408,399.467041 416.356934,399.891113 417.785461,399.264526 
	C419.285126,398.606659 418.513519,397.300476 418.708435,396.231750 
	C419.398346,392.448822 416.953461,389.829102 414.785736,386.643372 
	C424.207123,382.616577 433.981445,381.655121 443.062927,378.005890 
	C458.060883,371.979248 471.495667,364.481628 480.882843,351.005920 
	C483.260895,347.592102 484.809723,343.679321 484.691162,339.386230 
	C484.606995,336.339203 483.490967,334.511230 479.959900,336.076782 
	C478.372803,336.780457 476.669250,337.960999 474.326935,335.844971 
	C478.132019,326.626556 479.634766,317.019012 473.926361,307.036682 
	C471.627869,309.568756 468.665497,309.927979 468.155426,313.595917 
	C465.931396,329.588104 454.251831,339.400024 438.414703,336.669037 
	C419.862000,333.469757 414.012512,315.309875 420.662476,302.705994 
	C417.897858,302.171814 415.492706,301.074158 417.562225,297.809540 
	C422.148651,290.574432 428.622345,285.777557 437.236694,284.789459 
	C447.870087,283.569702 457.755432,285.459656 465.640259,293.515961 
	C466.674072,294.572296 467.916443,295.293121 469.021362,293.856110 
	C470.290802,292.205139 469.166107,291.074860 467.703735,290.303436 
	C465.647827,289.218872 463.197021,288.605957 461.528534,287.108093 
	C449.362366,276.185822 427.455872,280.211273 419.181152,291.790771 
	C418.439758,292.828278 417.725922,294.179016 416.019897,293.299042 
	C415.724365,288.386658 421.851624,282.579193 429.684937,279.643494 
	C436.165894,277.214661 442.951813,276.916718 450.514404,276.686462 
	C448.174866,273.715027 446.535217,271.632538 444.459351,268.984528 
M379.517883,188.842865 
	C378.588684,189.208984 377.687988,189.695282 376.726074,189.923553 
	C355.031769,195.071854 336.360046,205.818008 320.441772,221.190765 
	C313.790771,227.613831 307.373016,234.545273 302.191895,242.159241 
	C294.925537,252.837540 288.908386,264.366241 282.364075,275.535400 
	C277.102966,284.514557 278.199951,292.678192 285.388245,299.986450 
	C288.269165,302.915436 291.063629,304.915039 295.478943,303.218719 
	C299.796539,301.559967 300.628845,298.325439 301.161621,294.216766 
	C302.146057,286.625641 300.147125,278.358398 305.863525,271.716766 
	C306.830414,270.593384 306.432434,267.845215 308.829529,268.548035 
	C311.108612,269.216248 310.619843,271.573334 310.303253,273.286102 
	C309.514557,277.552917 308.816772,281.798431 309.352966,286.144897 
	C312.749176,286.860931 314.432770,284.975494 316.394958,282.466888 
	C323.554230,273.313934 328.663940,263.008759 332.831665,252.359131 
	C336.666931,242.558990 340.685150,232.439560 336.458588,221.461533 
	C335.343536,218.565353 337.118347,216.863251 339.973083,215.976868 
	C342.930695,220.021332 343.666229,224.675140 345.428680,228.889709 
	C349.343292,238.250687 354.682892,246.768860 360.287506,255.227722 
	C370.605011,270.799530 383.957886,280.740326 403.257996,281.163696 
	C404.746094,281.196320 406.476685,281.783264 407.202881,280.022095 
	C407.768188,278.651215 406.924805,277.003021 405.665131,276.723877 
	C401.908051,275.891418 400.768494,272.380829 398.509979,270.114136 
	C391.418427,262.996765 385.634766,254.907867 381.940002,245.452850 
	C381.327911,243.886520 380.176605,242.165527 382.324860,241.166656 
	C384.619354,240.099762 384.914368,242.349121 385.690216,243.742111 
	C389.542786,250.659348 392.009796,258.335571 398.249878,263.904388 
	C403.279419,268.392883 404.728760,268.924377 409.311890,264.053467 
	C419.748810,252.961121 427.644470,240.460083 429.738861,224.978699 
	C430.020325,222.898300 430.525482,221.087738 433.030182,220.380264 
	C435.248810,222.301163 435.747467,224.530350 435.121216,227.449341 
	C434.250854,231.506302 433.405121,235.553574 431.857574,239.406754 
	C430.965942,241.626801 431.041870,243.619370 432.613068,245.474655 
	C442.378906,257.006317 451.632080,269.006104 462.942413,279.137787 
	C467.016052,282.786865 467.896210,282.433441 468.906067,277.042755 
	C469.129150,275.851776 469.206146,274.596649 470.551971,274.268127 
	C471.907532,273.937225 472.651184,274.968719 473.277588,276.001801 
	C474.135345,277.416473 475.312378,278.716339 475.249329,280.504395 
	C475.109619,284.466888 475.895142,288.500305 474.314911,292.357330 
	C473.445282,294.479919 473.177582,297.565002 474.670258,298.473053 
	C478.136597,300.581848 478.712830,304.447113 481.174103,307.008087 
	C483.432312,309.357788 485.933960,310.931091 488.654755,307.454620 
	C489.218109,306.734772 489.639893,305.591095 491.249603,306.397491 
	C490.562866,310.186920 488.251404,313.245941 486.346466,316.471741 
	C482.301727,323.320862 482.276825,323.306152 484.259155,326.280731 
	C484.566803,326.177307 484.911224,326.129913 485.173706,325.957611 
	C485.587524,325.685883 486.007812,325.381012 486.319550,325.002930 
	C497.959839,310.887146 501.595123,294.442871 500.245544,276.603851 
	C500.132843,275.113953 499.221893,273.148071 500.507629,272.384369 
	C505.586700,269.367584 503.003845,265.787750 501.867706,262.031281 
	C500.466858,257.399506 498.488129,253.039703 496.516724,248.656448 
	C490.194794,234.600266 480.452728,223.049026 469.235535,212.817596 
	C457.728577,202.321930 443.356506,196.999176 428.802734,192.181137 
	C412.923981,186.924469 396.636841,187.867142 379.517883,188.842865 
M323.573364,422.024811 
	C321.377686,424.945435 319.403351,428.069550 316.942535,430.746429 
	C310.897827,437.322052 308.595734,445.750793 307.596466,453.894196 
	C305.522980,470.792206 312.111786,484.896484 324.854767,496.202637 
	C335.078156,505.273254 346.489105,510.868408 360.566925,509.671936 
	C364.886566,509.304840 368.855103,507.584747 370.300812,503.770782 
	C373.161865,496.222961 375.168610,488.337433 377.264221,480.520630 
	C378.031372,477.658875 378.378876,474.479095 376.980560,471.693665 
	C371.614746,461.005157 363.163269,453.671509 352.093536,449.237854 
	C349.439087,448.174744 347.584045,445.956329 345.602631,443.996307 
	C344.873749,443.275299 344.735870,442.174866 345.492584,441.265900 
	C346.099030,440.537415 347.164856,440.350464 347.777557,440.779053 
	C351.793365,443.587952 353.405273,440.317657 355.132843,437.835510 
	C356.392761,436.025299 357.410645,434.524689 360.018066,436.616272 
	C359.235962,438.093445 358.473907,439.518982 357.724792,440.951294 
	C356.883514,442.559723 355.665558,444.158875 356.945038,446.038208 
	C357.613892,447.020691 358.605896,447.827850 359.904633,447.407471 
	C362.126556,446.688416 361.984161,444.474060 362.290924,442.811340 
	C363.924713,433.956024 368.625641,427.273621 376.081909,422.367920 
	C377.638031,421.344086 379.812805,420.570129 379.131256,417.675751 
	C376.741028,417.182617 374.342407,416.557526 371.904327,416.206818 
	C360.079193,414.505737 348.037354,414.859161 336.278503,412.394562 
	C333.672333,411.848328 330.940765,412.093811 329.097839,414.706390 
	C327.475189,417.006714 325.711304,419.207428 323.573364,422.024811 
M485.985687,432.440552 
	C480.098724,421.861938 471.810669,413.377960 462.610779,405.697754 
	C462.002686,405.190125 461.057220,404.411652 460.534607,404.580811 
	C455.164581,406.319031 449.490295,407.410278 444.443939,410.969269 
	C447.769287,414.325531 451.320404,414.640991 455.009216,414.216278 
	C456.422028,414.053589 457.696320,413.849640 458.504578,415.278503 
	C459.231934,416.564362 459.036041,417.801727 458.176971,419.010345 
	C456.642059,421.169769 455.236938,423.424011 453.651764,425.544586 
	C451.618378,428.264771 451.313110,430.897278 453.645386,433.577881 
	C457.485291,437.991394 460.138855,443.166382 463.253204,448.054871 
	C465.483948,451.556396 464.330536,453.473969 461.863281,455.012024 
	C456.040100,458.642120 452.247101,464.021637 448.150879,469.265717 
	C445.671906,472.439301 444.949768,475.737671 445.343445,479.504669 
	C446.071503,486.470398 447.452545,493.227356 450.913025,499.470367 
	C451.943420,501.329285 453.030426,502.956543 455.013794,503.514557 
	C464.270020,506.118805 477.324768,503.562897 484.479187,494.943359 
	C498.235535,478.369843 497.395782,449.258484 485.985687,432.440552 
M285.335175,324.091705 
	C282.863037,321.083618 282.005432,316.990692 278.814972,314.174164 
	C280.840332,329.253967 291.762085,342.867859 301.907532,341.998047 
	C295.424591,336.722229 290.076447,331.153412 285.335175,324.091705 
M458.051514,135.463776 
	C460.614014,130.018936 459.121674,127.435104 453.609833,127.614326 
	C450.619690,127.711563 447.592896,127.743988 445.360931,125.152100 
	C442.318451,121.618980 439.577606,122.208344 436.716980,126.247055 
	C443.766754,129.194382 449.758698,134.015640 458.051514,135.463776 
M313.243683,131.851318 
	C311.393890,129.830338 309.812469,130.615356 308.229584,132.263214 
	C305.313904,135.298615 301.611877,137.319290 297.877930,138.928024 
	C291.561676,141.649292 291.371307,141.545303 294.241577,147.736435 
	C300.489960,143.490540 306.718353,139.235184 312.977600,135.025711 
	C314.136688,134.246185 315.548798,133.685287 313.243683,131.851318 
M433.956604,312.533051 
	C436.717468,310.750458 437.533691,308.328552 436.385010,305.236816 
	C435.484955,302.814423 433.607544,301.989227 431.245300,302.312805 
	C428.063019,302.748718 425.742645,304.624329 424.527130,307.510468 
	C423.899506,309.000732 423.872955,310.931152 425.330505,312.146423 
	C427.745911,314.160400 430.494751,314.094818 433.956604,312.533051 
M340.937073,310.709991 
	C336.989441,307.511078 333.682861,310.119171 330.755554,312.284241 
	C328.647949,313.843079 329.994598,318.587128 332.386261,319.387115 
	C338.104675,321.299866 342.325531,317.511841 340.937073,310.709991 
M384.122437,495.350464 
	C385.053833,492.162354 386.129120,488.991272 385.601898,485.588348 
	C385.414062,484.375946 384.908600,483.270813 383.546692,483.101013 
	C382.655701,482.989990 381.838196,483.617493 381.633575,484.430237 
	C380.406036,489.305206 377.791565,493.883209 378.006226,499.237366 
	C381.423859,500.193604 382.332214,497.671417 384.122437,495.350464 
M352.109497,336.795563 
	C352.611176,332.251801 349.104248,333.420563 346.809662,333.271912 
	C344.235382,333.105103 341.232178,332.694366 339.871613,335.706635 
	C339.202271,337.188507 340.634796,338.066956 341.956360,338.507568 
	C345.368622,339.645294 348.718323,340.057648 352.109497,336.795563 
M440.720276,482.165649 
	C436.713562,480.774078 435.438843,483.658783 434.549255,486.463165 
	C433.990540,488.224426 434.673553,490.161896 436.456238,491.201111 
	C437.880432,492.031281 439.491089,492.763062 441.087921,491.554565 
	C442.863586,490.210724 442.486450,488.379028 442.041870,486.563354 
	C441.729614,485.288177 441.446136,484.005981 440.720276,482.165649 
M440.012329,326.770996 
	C441.851349,332.960480 445.975555,327.724731 448.920715,328.466461 
	C449.924500,328.719269 451.295227,327.862732 451.280243,326.476898 
	C451.265259,325.087433 450.439728,323.878296 449.028564,323.559570 
	C445.662506,322.799347 442.467010,322.908081 440.012329,326.770996 
M456.650208,123.522514 
	C459.172485,122.193565 459.345245,120.867958 456.318115,120.401169 
	C453.832947,120.017944 451.444183,119.624207 449.315430,118.228210 
	C448.374176,117.610947 447.413361,117.471733 446.736053,118.501457 
	C446.111511,119.450951 446.454315,120.385513 447.202850,121.182663 
	C449.612274,123.748497 452.681458,123.940277 456.650208,123.522514 
M293.439545,130.504150 
	C292.101166,131.745544 292.487732,133.668152 293.944702,133.060028 
	C297.590607,131.538284 302.100555,131.454361 305.281250,127.877678 
	C300.413971,125.761154 297.624146,129.561096 293.439545,130.504150 
M462.100372,298.177612 
	C458.823975,294.494904 454.939423,291.993408 449.633820,292.234070 
	C453.801239,294.374146 457.968689,296.514221 462.100372,298.177612 
M452.953369,115.001747 
	C454.248444,116.797760 456.017944,117.142387 457.723297,115.961670 
	C459.123657,114.992180 459.049164,113.435959 458.098083,112.023285 
	C454.808960,112.371140 454.808960,112.371140 452.953369,115.001747 
z"/>
<path fill="#000000" opacity="1.000000" stroke="none" 
	d="
M181.800507,392.971985 
	C188.997147,383.766388 195.978836,382.067993 205.691544,387.068146 
	C208.674576,383.346405 210.692307,378.828888 215.660553,376.583710 
	C221.645660,373.878998 227.161057,373.526855 232.589035,377.120728 
	C246.499359,386.330505 249.544418,399.909027 243.487762,416.184052 
	C240.594315,423.959137 237.263992,431.581818 233.850433,439.146667 
	C232.886581,441.282623 232.545959,443.094727 233.766830,445.193481 
	C229.910339,448.742645 225.703751,447.075745 221.811264,446.328583 
	C208.678268,443.807861 195.904617,440.669922 186.555023,429.716461 
	C178.751160,420.573883 175.880508,401.954529 181.800507,392.971985 
M226.719467,378.656006 
	C216.002838,377.929596 210.483994,383.459442 209.483902,393.510498 
	C206.806625,393.829498 205.909302,392.152069 204.588211,391.255798 
	C196.000015,385.429199 185.538834,389.085327 183.746719,399.272949 
	C181.264832,413.381439 184.477371,427.199188 200.550446,435.718597 
	C207.860580,439.593292 215.966003,440.694763 223.624039,443.315552 
	C225.900787,444.094727 227.447098,443.191437 228.476303,441.074768 
	C233.614731,430.507233 239.309143,420.113647 241.371338,408.397308 
	C242.157501,403.930634 243.048676,399.355194 241.725113,394.619873 
	C239.558380,386.867950 234.099701,382.411865 226.719467,378.656006 
z"/>
<path fill="#000000" opacity="1.000000" stroke="none" 
	d="
M526.707764,509.942719 
	C527.297180,513.778503 527.596130,517.270996 531.321472,519.165588 
	C532.482788,519.756226 532.672119,521.064514 531.771423,522.174011 
	C530.898926,523.248779 529.734985,523.161133 528.587402,522.648926 
	C526.617249,521.769531 525.449158,519.905518 524.812073,518.170776 
	C520.794373,507.230560 519.813110,496.069092 525.413086,485.461731 
	C531.254944,474.396210 539.019775,474.447235 546.944824,485.296600 
	C550.443787,485.070129 554.177002,483.240265 557.749390,485.955841 
	C563.487122,490.317261 561.563965,496.224518 560.713745,501.561279 
	C559.988953,506.110962 557.516357,510.272064 554.712830,514.036987 
	C553.820679,515.235046 552.669250,516.224487 552.893250,518.251160 
	C556.138916,519.035156 559.834656,520.805725 562.570618,517.960632 
	C566.044067,514.348572 566.659729,509.499268 565.597778,504.354706 
	C568.820923,502.189209 571.964111,502.715576 576.078064,504.928131 
	C572.427246,507.165222 570.547485,509.960052 568.981018,513.357605 
	C566.668152,518.374146 570.550354,519.967163 573.537354,523.048340 
	C568.838074,525.287598 564.500732,524.094604 560.430969,523.995667 
	C556.628723,523.903259 552.850403,523.263855 549.008423,523.740967 
	C547.196045,523.966064 545.113159,523.920044 544.192932,521.983276 
	C543.256226,520.011658 545.171936,519.152161 546.273254,517.948547 
	C551.968079,511.724579 556.638245,504.926971 557.532288,496.220184 
	C557.785828,493.751465 558.152100,491.187836 555.562622,489.460510 
	C553.215149,487.894684 551.116699,488.918304 548.966248,489.879211 
	C543.162842,492.472443 543.160706,492.467468 541.588013,485.983124 
	C540.466309,481.358337 536.802307,479.935333 532.891479,482.605530 
	C530.462830,484.263763 529.905029,485.130585 527.521301,491.386322 
	C529.774231,489.167206 531.363281,487.639313 533.617798,487.105682 
	C535.110840,486.752319 536.302612,486.630432 536.882507,488.257538 
	C537.384521,489.666138 536.908325,490.880737 535.652954,491.731995 
	C534.423767,492.565521 532.116089,491.993347 532.067871,494.667572 
	C534.562805,496.392059 536.497192,492.559540 539.249817,494.176819 
	C540.214844,497.289124 537.080078,497.866272 535.346985,499.188599 
	C532.011230,501.733765 529.919739,498.651855 527.018982,496.723267 
	C525.478394,501.201904 526.463013,505.421448 526.707764,509.942719 
z"/>
<path fill="#000000" opacity="1.000000" stroke="none" 
	d="
M625.684204,258.247803 
	C633.284912,257.407928 639.487366,259.859283 643.274719,265.845093 
	C647.340576,272.271149 647.014465,279.236206 643.395142,286.218323 
	C635.114014,302.193573 622.064026,313.097076 606.762939,321.760468 
	C604.654114,322.954498 603.327759,323.169556 601.435608,320.728973 
	C596.791870,314.739105 590.942200,309.707672 588.817932,301.944031 
	C585.428711,289.557037 584.141541,277.186829 587.984558,264.680389 
	C590.658447,255.978577 601.446777,249.172012 609.624573,250.487701 
	C615.260498,251.394409 616.354797,256.300568 618.938110,260.069000 
	C621.156250,259.481354 623.227417,258.932648 625.684204,258.247803 
M610.086731,254.335892 
	C608.063965,253.109421 605.984924,253.101730 603.881470,254.088379 
	C595.571167,257.986420 590.164856,263.920776 590.209595,273.657471 
	C590.232483,278.654419 590.135559,283.655945 590.317200,288.647247 
	C590.666321,298.239166 593.597107,306.709412 600.233154,314.046783 
	C603.553955,317.718506 606.138489,317.804260 610.057861,315.580444 
	C621.774658,308.932495 631.024658,299.839874 637.741760,288.221130 
	C640.070740,284.192566 642.053589,279.845581 641.874878,275.048828 
	C641.493713,264.817963 631.059204,258.935608 620.898438,263.700928 
	C616.522766,265.753143 615.170837,264.164246 614.165833,260.647430 
	C613.505737,258.337616 612.646484,256.253143 610.086731,254.335892 
z"/>
<path fill="#000000" opacity="1.000000" stroke="none" 
	d="
M180.877258,161.173370 
	C183.496246,162.470306 186.586441,161.697678 189.261932,165.224670 
	C180.020065,168.802795 174.549271,160.057480 166.938232,160.010269 
	C165.227692,170.219910 162.355759,180.182526 158.388809,189.819168 
	C157.945312,190.896545 157.627502,192.031586 157.116653,193.073822 
	C156.460663,194.412048 155.350052,195.209991 153.877060,194.469681 
	C152.588120,193.821884 152.565887,192.447189 153.217148,191.425156 
	C156.705383,185.951080 157.522324,179.598541 159.238464,173.546722 
	C160.413498,169.403061 161.480621,165.227097 162.507477,161.043839 
	C163.026352,158.930008 162.466583,157.217361 160.558121,155.835144 
	C157.857391,153.879120 155.157684,151.987213 152.135590,150.524231 
	C149.528931,149.262405 146.697556,148.148254 145.244354,145.278687 
	C147.008926,142.758987 148.806763,143.857254 150.543503,144.869446 
	C153.706573,146.712936 156.837128,148.612152 159.985275,150.481308 
	C162.807037,152.156693 164.482147,151.206467 164.768021,148.096329 
	C165.680466,138.170044 168.145233,128.464828 168.739349,118.480537 
	C169.058167,113.122887 170.180817,107.813065 170.939926,102.487511 
	C174.753799,102.806129 174.279755,105.148674 174.167999,107.014915 
	C173.385849,120.076805 171.872192,133.047958 169.040909,145.841919 
	C167.348938,153.487595 167.680130,154.211868 174.432281,157.677322 
	C176.493973,158.735458 178.145844,160.541580 180.877258,161.173370 
z"/>
<path fill="#000000" opacity="1.000000" stroke="none" 
	d="
M156.236343,495.070129 
	C155.761703,499.738098 154.526199,504.000610 157.690063,507.914307 
	C158.761246,509.239410 157.327072,510.340668 156.141296,511.036835 
	C154.894882,511.768524 153.570053,511.389099 153.237549,510.152985 
	C150.349716,499.416809 141.776291,495.903778 132.338959,493.318848 
	C128.190170,492.182434 127.776268,490.281128 130.391418,486.508972 
	C135.966995,478.466583 136.841843,469.291779 135.003708,459.812347 
	C134.816422,458.846497 134.254761,457.931549 135.209259,456.660126 
	C138.352814,455.957123 139.924545,457.808594 141.382065,460.547852 
	C143.794373,465.081604 146.431625,469.448853 151.036194,472.337982 
	C153.533188,473.904724 155.990326,474.895508 158.911301,474.974182 
	C160.802353,475.025085 163.135452,474.372223 163.909805,477.063934 
	C164.600220,479.463837 163.376160,481.146606 161.744415,482.777985 
	C158.484161,486.037415 156.144226,489.788818 156.236343,495.070129 
M137.308365,482.549683 
	C136.655258,484.723114 134.843536,486.509735 135.102341,489.345856 
	C140.313797,491.811157 145.900879,493.742523 151.584579,497.742950 
	C151.492752,490.547546 155.446335,485.600952 157.713745,479.460907 
	C150.700439,478.278534 146.337250,473.590729 141.287033,469.546326 
	C138.868851,473.737274 139.952255,478.320282 137.308365,482.549683 
z"/>
<path fill="#000000" opacity="1.000000" stroke="none" 
	d="
M631.187195,114.395309 
	C631.622437,118.243713 628.441467,120.288979 627.495483,123.407249 
	C624.925720,131.877975 622.718079,140.261032 628.797607,148.477570 
	C624.544983,150.729889 623.239136,147.596970 622.419312,145.238586 
	C620.013123,138.317123 614.890137,134.736420 608.466858,132.065216 
	C605.704895,130.916641 602.876404,132.654266 599.690002,130.808319 
	C603.012207,125.627747 607.364624,121.348541 609.886047,115.830711 
	C612.507141,110.094437 611.455383,103.952820 612.684448,97.652435 
	C617.916748,104.375916 620.666748,113.533302 631.187195,114.395309 
M614.883484,109.508934 
	C614.043945,116.203262 610.681519,121.934227 607.070312,128.230560 
	C612.631165,129.437607 616.901062,131.980499 621.450684,135.753723 
	C621.553040,128.498108 623.375427,122.896851 626.743713,117.677185 
	C622.614319,114.590836 618.848083,111.775970 614.883484,109.508934 
z"/>
<path fill="#000000" opacity="1.000000" stroke="none" 
	d="
M159.104095,336.952759 
	C158.819962,339.864227 158.611771,342.345490 158.308929,344.815125 
	C157.971191,347.569122 156.692688,350.345245 153.651779,349.102631 
	C148.870850,347.149017 143.594131,347.131409 138.974045,344.516815 
	C135.930740,342.794556 133.523727,340.633514 131.847763,337.806335 
	C128.684692,332.470490 130.935959,327.785858 137.109772,326.856995 
	C139.444412,326.505798 141.088409,325.390076 142.792831,324.058624 
	C145.925140,321.611694 149.293854,319.830688 153.368637,321.503113 
	C157.652786,323.261505 157.901505,327.269745 158.399857,331.088867 
	C158.636154,332.899689 158.891541,334.708008 159.104095,336.952759 
M151.037582,324.766724 
	C149.611755,324.165710 148.319412,324.710083 147.377731,325.622681 
	C144.500381,328.411194 141.682068,330.851074 137.168243,330.674255 
	C135.366837,330.603729 134.277069,332.465729 135.004135,334.783142 
	C136.723434,340.263245 147.172302,345.543549 152.584518,343.577057 
	C153.814590,343.130127 154.635452,342.362732 154.684219,341.105133 
	C154.899628,335.551361 156.133804,329.782837 151.037582,324.766724 
z"/>
<path fill="#000000" opacity="1.000000" stroke="none" 
	d="
M84.386047,446.586823 
	C87.376343,444.055328 89.304535,448.013397 92.258621,447.460571 
	C92.117767,444.411499 91.858002,441.545868 90.700066,438.824524 
	C89.967964,437.103912 89.555748,435.353119 89.762100,433.478088 
	C89.933617,431.919617 90.745132,431.017548 92.359810,431.079590 
	C93.811905,431.135376 94.212509,432.045715 94.349525,433.409851 
	C94.625519,436.157745 95.111290,438.884521 95.510399,441.619202 
	C97.296143,441.511597 97.359520,439.986023 98.245033,439.330170 
	C99.265213,438.574524 100.329254,438.135590 101.429672,438.975891 
	C102.615196,439.881195 102.255394,441.063599 101.602905,442.095490 
	C100.625252,443.641602 99.543388,445.121948 98.503456,446.628601 
	C97.059242,448.721008 97.531700,450.237488 99.698738,451.558014 
	C101.187096,452.464966 103.476891,452.074280 104.322266,454.567810 
	C102.616203,456.353088 99.959175,457.881470 100.925148,461.236450 
	C101.149681,462.016266 100.302414,462.807495 99.385963,462.867462 
	C98.257675,462.941284 97.531906,462.140869 97.090607,461.224487 
	C96.094070,459.155090 96.083412,456.655975 94.163757,454.634583 
	C91.422462,456.034668 90.121620,458.726379 88.432884,461.045746 
	C87.513237,462.308777 86.388283,463.646057 84.770714,462.528809 
	C83.044502,461.336487 84.247223,459.757812 85.016228,458.575500 
	C86.443024,456.381805 88.642014,454.672791 89.149124,452.053680 
	C88.118874,449.586029 84.105400,450.249695 84.386047,446.586823 
z"/>
<path fill="#000000" opacity="1.000000" stroke="none" 
	d="
M674.447998,159.115845 
	C673.263977,155.317017 671.303223,151.931244 673.273987,147.238174 
	C676.880859,150.937576 676.242493,155.714951 679.044922,158.806122 
	C680.854858,157.285706 681.455139,154.505478 684.460449,153.605789 
	C685.858887,158.343307 681.680298,161.115814 680.880188,164.993774 
	C682.143433,167.261307 685.966614,166.900101 686.450806,170.087250 
	C686.159180,172.278915 683.780457,170.867691 682.949219,172.076736 
	C682.415894,174.982590 685.424316,177.621399 683.538025,180.826675 
	C678.646057,180.312775 680.773804,175.329407 678.505920,173.086182 
	C674.511963,174.337631 675.911194,180.031204 671.243591,181.272095 
	C669.529541,175.869019 675.314087,172.489349 674.849182,167.418259 
	C673.086670,166.532928 671.162354,165.610214 669.281921,164.605606 
	C668.115845,163.982697 666.642822,163.279358 667.544495,161.621719 
	C668.343079,160.153595 669.805725,160.483932 671.070801,161.081726 
	C672.928955,161.959763 675.031372,163.541504 674.447998,159.115845 
z"/>
<path fill="#000000" opacity="1.000000" stroke="none" 
	d="
M213.064575,140.431335 
	C214.244583,139.876816 215.126480,139.240891 216.076019,140.174728 
	C213.908722,145.756897 203.646118,153.251007 199.609467,152.207520 
	C202.425262,146.899033 202.425262,146.899033 201.490295,141.431076 
	C199.346542,141.759933 198.075912,145.636200 194.783539,142.916595 
	C196.890121,138.175903 201.325638,135.747681 205.256668,133.009537 
	C206.653778,132.036377 208.152573,134.177841 207.300751,135.128006 
	C204.801605,137.915695 206.730209,140.787338 206.158722,143.847366 
	C209.387543,144.285919 210.466309,141.136627 213.064575,140.431335 
z"/>
<path fill="#000000" opacity="1.000000" stroke="none" 
	d="
M247.038452,87.165329 
	C245.560944,97.773499 241.845444,107.467781 240.751266,118.302307 
	C236.267197,113.557678 241.777527,85.823875 247.139542,82.373726 
	C248.961639,83.830376 247.633255,85.318771 247.038452,87.165329 
z"/>
<path fill="#000000" opacity="1.000000" stroke="none" 
	d="
M551.292358,493.819092 
	C553.539978,495.019714 556.447693,495.194550 555.950378,498.427734 
	C555.584717,500.804688 553.891479,502.175812 551.462402,502.228790 
	C549.118286,502.279938 546.317932,503.273590 545.146790,499.987122 
	C544.227295,497.406555 544.831909,495.060181 546.675903,493.142578 
	C548.171570,491.587219 549.669128,492.397095 551.292358,493.819092 
z"/>
<path fill="#000000" opacity="1.000000" stroke="none" 
	d="
M555.789917,368.617004 
	C555.866699,365.533386 555.673767,362.834991 556.159485,360.264832 
	C556.657776,357.628052 557.911987,355.228180 561.786621,355.669403 
	C554.513672,364.556000 560.251282,372.158569 564.403137,380.108734 
	C560.057190,379.437378 557.223633,375.437378 555.789917,368.617004 
z"/>
<path fill="#000000" opacity="1.000000" stroke="none" 
	d="
M574.052856,372.940247 
	C576.097717,370.220764 576.664673,367.279602 577.520508,363.536011 
	C581.177856,367.213013 578.948730,370.331207 577.697205,372.855377 
	C574.945007,378.406281 570.340393,381.037140 566.128113,379.848083 
	C568.361755,377.067047 571.992676,376.120239 574.052856,372.940247 
z"/>
<path fill="#000000" opacity="1.000000" stroke="none" 
	d="
M112.777832,500.421143 
	C111.280998,500.479156 109.883217,500.763153 109.540283,499.300354 
	C109.233589,497.992126 110.248535,497.207581 111.407501,496.788239 
	C112.331001,496.454132 113.279198,496.027405 114.234543,495.975586 
	C116.230598,495.867340 119.129547,492.894257 119.998466,496.412964 
	C120.686150,499.197662 117.178429,499.386536 115.079903,500.073700 
	C114.464851,500.275055 113.788567,500.289398 112.777832,500.421143 
z"/>
<path fill="#000000" opacity="1.000000" stroke="none" 
	d="
M160.165970,524.419373 
	C159.009689,526.947937 157.727188,526.249573 156.895859,524.728821 
	C155.588882,522.338074 154.326141,519.822571 155.534821,516.614258 
	C159.196411,518.010071 159.259659,521.331543 160.165970,524.419373 
z"/>
<path fill="#000000" opacity="1.000000" stroke="none" 
	d="
M129.349274,447.056763 
	C127.972099,444.043427 125.509666,441.339020 128.136856,437.998871 
	C132.182358,441.502197 132.646744,444.864594 129.349274,447.056763 
z"/>
<path fill="#000000" opacity="1.000000" stroke="none" 
	d="
M173.440063,472.768860 
	C171.309494,475.438293 169.124390,476.574463 165.669434,473.692352 
	C168.640137,472.727112 170.044601,467.798706 173.440063,472.768860 
z"/>
<path fill="#000000" opacity="1.000000" stroke="none" 
	d="
M234.862106,134.183167 
	C232.752563,133.380966 230.602341,133.123657 230.096832,130.465576 
	C232.822311,128.227814 235.067566,130.151825 236.778519,131.759491 
	C238.111633,133.012131 236.870804,134.066650 234.862106,134.183167 
z"/>
<path fill="#000000" opacity="1.000000" stroke="none" 
	d="
M609.745239,85.967911 
	C610.082886,88.342987 610.993042,90.463722 609.097839,92.554489 
	C605.869934,91.075890 606.704285,88.284706 607.079468,85.946838 
	C607.328979,84.391609 608.568787,84.450928 609.745239,85.967911 
z"/>
<path fill="#000000" opacity="1.000000" stroke="none" 
	d="
M587.424744,136.729736 
	C585.659729,136.888565 584.025391,137.590912 583.338806,135.186768 
	C585.724243,133.705750 588.193665,132.951920 591.049377,133.731583 
	C591.367554,136.566391 589.119141,136.058578 587.424744,136.729736 
z"/>
<path fill="#000000" opacity="1.000000" stroke="none" 
	d="
M633.496643,157.798920 
	C634.166931,159.709534 634.143433,161.149048 632.093140,161.409653 
	C630.379517,161.627487 630.031799,160.217316 629.664673,158.921036 
	C629.252441,157.465393 628.749207,155.820221 630.481995,155.076614 
	C632.607117,154.164658 632.546143,156.481003 633.496643,157.798920 
z"/>
<path fill="#000000" opacity="1.000000" stroke="none" 
	d="
M345.879913,166.104584 
	C342.659576,166.582352 339.447388,167.170776 338.896576,163.166473 
	C338.460114,159.993515 337.776306,156.397659 341.927032,154.643524 
	C345.011353,153.340042 347.337677,154.813248 348.755402,157.087723 
	C350.981873,160.659622 349.606293,163.718857 345.879913,166.104584 
z"/>
<path fill="#000000" opacity="1.000000" stroke="none" 
	d="
M365.878296,149.596085 
	C366.731384,149.388596 367.567261,149.187119 367.950043,149.514862 
	C371.494934,152.549835 373.834167,152.091187 375.004303,147.356613 
	C375.206909,146.536728 376.013275,146.070160 378.167175,146.468246 
	C376.872528,152.611343 376.409912,158.977829 378.107727,165.574768 
	C376.084473,165.328400 375.553070,165.393021 375.476074,165.235519 
	C373.149353,160.475983 371.003754,155.623795 366.234283,152.608444 
	C365.487793,152.136490 365.268341,150.896622 365.878296,149.596085 
z"/>
<path fill="#000000" opacity="1.000000" stroke="none" 
	d="
M397.738464,154.198593 
	C394.739380,150.603851 395.925079,147.873764 398.865753,145.479446 
	C401.210083,143.570694 403.656525,143.101562 405.894806,145.560684 
	C408.071991,147.952682 408.118195,150.880417 406.272705,153.234619 
	C404.148132,155.944885 401.211884,156.964798 397.738464,154.198593 
z"/>
<path fill="#000000" opacity="1.000000" stroke="none" 
	d="
M401.853088,328.375793 
	C403.749176,327.601715 405.310547,326.717804 406.657898,329.027557 
	C404.850586,331.883820 401.697845,333.391510 398.852966,332.864624 
	C395.428253,332.230347 393.177765,333.457489 390.609009,334.991577 
	C386.530914,337.427063 384.120544,336.627838 381.980225,331.980042 
	C388.872070,332.375122 394.550903,327.339081 401.853088,328.375793 
z"/>
</svg>