<svg width="215" height="89" viewBox="0 0 215 89" fill="none" xmlns="http://www.w3.org/2000/svg">
<g filter="url(#filter0_d_21_240)">
<rect x="4" y="4" width="199" height="73" rx="25" fill="url(#paint0_linear_21_240)"/>
</g>
<path d="M57.0314 54V27.8182H62.5669V49.4361H73.7914V54H57.0314ZM86.2271 54.3835C84.2413 54.3835 82.524 53.9616 81.0751 53.1179C79.6348 52.2656 78.5225 51.081 77.7385 49.5639C76.9544 48.0384 76.5623 46.2699 76.5623 44.2585C76.5623 42.2301 76.9544 40.4574 77.7385 38.9403C78.5225 37.4148 79.6348 36.2301 81.0751 35.3864C82.524 34.5341 84.2413 34.108 86.2271 34.108C88.2129 34.108 89.926 34.5341 91.3663 35.3864C92.8152 36.2301 93.9316 37.4148 94.7157 38.9403C95.4998 40.4574 95.8919 42.2301 95.8919 44.2585C95.8919 46.2699 95.4998 48.0384 94.7157 49.5639C93.9316 51.081 92.8152 52.2656 91.3663 53.1179C89.926 53.9616 88.2129 54.3835 86.2271 54.3835ZM86.2527 50.1648C87.1561 50.1648 87.9103 49.9091 88.5154 49.3977C89.1206 48.8778 89.5765 48.1705 89.8833 47.2756C90.1987 46.3807 90.3564 45.3622 90.3564 44.2202C90.3564 43.0781 90.1987 42.0597 89.8833 41.1648C89.5765 40.2699 89.1206 39.5625 88.5154 39.0426C87.9103 38.5227 87.1561 38.2628 86.2527 38.2628C85.3407 38.2628 84.5737 38.5227 83.9515 39.0426C83.3379 39.5625 82.8734 40.2699 82.5581 41.1648C82.2512 42.0597 82.0978 43.0781 82.0978 44.2202C82.0978 45.3622 82.2512 46.3807 82.5581 47.2756C82.8734 48.1705 83.3379 48.8778 83.9515 49.3977C84.5737 49.9091 85.3407 50.1648 86.2527 50.1648ZM108.28 61.7727C106.515 61.7727 105.003 61.5298 103.741 61.044C102.488 60.5668 101.491 59.9148 100.75 59.0881C100.008 58.2614 99.5268 57.3324 99.3052 56.3011L104.342 55.6236C104.496 56.0156 104.738 56.3821 105.071 56.723C105.403 57.0639 105.842 57.3366 106.388 57.5412C106.942 57.7543 107.615 57.8608 108.407 57.8608C109.592 57.8608 110.568 57.571 111.335 56.9915C112.111 56.4205 112.498 55.4616 112.498 54.1151V50.5227H112.268C112.03 51.0682 111.672 51.5838 111.194 52.0696C110.717 52.5554 110.104 52.9517 109.354 53.2585C108.604 53.5653 107.709 53.7188 106.669 53.7188C105.194 53.7188 103.852 53.3778 102.642 52.696C101.44 52.0057 100.481 50.9531 99.7654 49.5384C99.0581 48.1151 98.7044 46.3168 98.7044 44.1435C98.7044 41.919 99.0666 40.0611 99.791 38.5696C100.515 37.0781 101.479 35.9616 102.68 35.2202C103.89 34.4787 105.216 34.108 106.656 34.108C107.756 34.108 108.676 34.2955 109.417 34.6705C110.159 35.0369 110.756 35.4972 111.207 36.0511C111.667 36.5966 112.021 37.1335 112.268 37.6619H112.473V34.3636H117.881V54.1918C117.881 55.8622 117.471 57.2599 116.653 58.3849C115.835 59.5099 114.702 60.3537 113.253 60.9162C111.812 61.4872 110.155 61.7727 108.28 61.7727ZM108.395 49.6278C109.273 49.6278 110.014 49.4105 110.619 48.9759C111.233 48.5327 111.702 47.902 112.025 47.0838C112.358 46.2571 112.524 45.2685 112.524 44.1179C112.524 42.9673 112.362 41.9702 112.038 41.1264C111.714 40.2741 111.246 39.6136 110.632 39.1449C110.018 38.6761 109.273 38.4418 108.395 38.4418C107.5 38.4418 106.746 38.6847 106.132 39.1705C105.518 39.6477 105.054 40.3125 104.738 41.1648C104.423 42.017 104.265 43.0014 104.265 44.1179C104.265 45.2514 104.423 46.2315 104.738 47.0582C105.062 47.8764 105.527 48.5114 106.132 48.9631C106.746 49.4062 107.5 49.6278 108.395 49.6278ZM122.214 54V34.3636H127.66V54H122.214ZM124.95 31.8324C124.14 31.8324 123.446 31.5639 122.866 31.027C122.295 30.4815 122.01 29.8295 122.01 29.071C122.01 28.321 122.295 27.6776 122.866 27.1406C123.446 26.5952 124.14 26.3224 124.95 26.3224C125.76 26.3224 126.45 26.5952 127.021 27.1406C127.601 27.6776 127.89 28.321 127.89 29.071C127.89 29.8295 127.601 30.4815 127.021 31.027C126.45 31.5639 125.76 31.8324 124.95 31.8324ZM137.469 42.6477V54H132.023V34.3636H137.213V37.8281H137.443C137.878 36.6861 138.607 35.7827 139.629 35.1179C140.652 34.4446 141.892 34.108 143.35 34.108C144.713 34.108 145.902 34.4062 146.916 35.0028C147.931 35.5994 148.719 36.4517 149.281 37.5597C149.844 38.6591 150.125 39.9716 150.125 41.4972V54H144.679V42.4688C144.688 41.267 144.381 40.3295 143.759 39.6562C143.137 38.9744 142.28 38.6335 141.189 38.6335C140.456 38.6335 139.808 38.7912 139.246 39.1065C138.692 39.4219 138.257 39.8821 137.942 40.4872C137.635 41.0838 137.477 41.804 137.469 42.6477Z" fill="white"/>
<defs>
<filter id="filter0_d_21_240" x="0" y="0" width="215" height="89" filterUnits="userSpaceOnUse" color-interpolation-filters="sRGB">
<feFlood flood-opacity="0" result="BackgroundImageFix"/>
<feColorMatrix in="SourceAlpha" type="matrix" values="0 0 0 0 0 0 0 0 0 0 0 0 0 0 0 0 0 0 127 0" result="hardAlpha"/>
<feMorphology radius="4" operator="dilate" in="SourceAlpha" result="effect1_dropShadow_21_240"/>
<feOffset dx="4" dy="4"/>
<feGaussianBlur stdDeviation="2"/>
<feComposite in2="hardAlpha" operator="out"/>
<feColorMatrix type="matrix" values="0 0 0 0 0 0 0 0 0 0 0 0 0 0 0 0 0 0 0.25 0"/>
<feBlend mode="normal" in2="BackgroundImageFix" result="effect1_dropShadow_21_240"/>
<feBlend mode="normal" in="SourceGraphic" in2="effect1_dropShadow_21_240" result="shape"/>
</filter>
<linearGradient id="paint0_linear_21_240" x1="203" y1="77" x2="4" y2="77" gradientUnits="userSpaceOnUse">
<stop stop-color="#AFA0FD"/>
<stop offset="1" stop-color="#FF9FF0"/>
</linearGradient>
</defs>
</svg>
