<svg width="215" height="89" viewBox="0 0 215 89" fill="none" xmlns="http://www.w3.org/2000/svg">
<g filter="url(#filter0_d_21_241)">
<rect x="4" y="4" width="199" height="73" rx="25" fill="url(#paint0_linear_21_241)"/>
</g>
<path d="M53.9377 35.348C53.8354 34.3168 53.3965 33.5156 52.6209 32.9446C51.8453 32.3736 50.7928 32.0881 49.4632 32.0881C48.5598 32.0881 47.7971 32.2159 47.1749 32.4716C46.5527 32.7188 46.0755 33.0639 45.7431 33.5071C45.4192 33.9503 45.2573 34.4531 45.2573 35.0156C45.2402 35.4844 45.3382 35.8935 45.5513 36.2429C45.7729 36.5923 46.0755 36.8949 46.459 37.1506C46.8425 37.3977 47.2857 37.6151 47.7885 37.8026C48.2914 37.9815 48.8283 38.1349 49.3993 38.2628L51.7516 38.8253C52.8936 39.081 53.9419 39.4219 54.8965 39.848C55.851 40.2741 56.6777 40.7983 57.3766 41.4205C58.0755 42.0426 58.6167 42.7756 59.0002 43.6193C59.3922 44.4631 59.5925 45.4304 59.601 46.5213C59.5925 48.1236 59.1834 49.5128 58.3738 50.6889C57.5726 51.8565 56.4135 52.7642 54.8965 53.4119C53.388 54.0511 51.5684 54.3707 49.4377 54.3707C47.324 54.3707 45.4831 54.0469 43.915 53.3991C42.3553 52.7514 41.1365 51.7926 40.2587 50.5227C39.3894 49.2443 38.9334 47.6634 38.8908 45.7798H44.2473C44.307 46.6577 44.5584 47.3906 45.0016 47.9787C45.4533 48.5582 46.0542 48.9972 46.8042 49.2955C47.5627 49.5852 48.4192 49.7301 49.3738 49.7301C50.3113 49.7301 51.1252 49.5937 51.8155 49.321C52.5144 49.0483 53.0556 48.669 53.4391 48.1832C53.8226 47.6974 54.0144 47.1392 54.0144 46.5085C54.0144 45.9205 53.8397 45.4261 53.4902 45.0256C53.1493 44.625 52.6465 44.2841 51.9817 44.0028C51.3255 43.7216 50.5201 43.4659 49.5655 43.2358L46.7147 42.5199C44.5073 41.983 42.7644 41.1435 41.486 40.0014C40.2076 38.8594 39.5726 37.321 39.5811 35.3864C39.5726 33.8011 39.9945 32.4162 40.8468 31.2315C41.7076 30.0469 42.888 29.1222 44.388 28.4574C45.888 27.7926 47.5925 27.4602 49.5016 27.4602C51.4448 27.4602 53.1408 27.7926 54.5897 28.4574C56.0471 29.1222 57.1806 30.0469 57.9902 31.2315C58.7999 32.4162 59.2175 33.7884 59.2431 35.348H53.9377ZM63.2221 54V34.3636H68.6681V54H63.2221ZM65.9579 31.8324C65.1483 31.8324 64.4537 31.5639 63.8741 31.027C63.3031 30.4815 63.0176 29.8295 63.0176 29.071C63.0176 28.321 63.3031 27.6776 63.8741 27.1406C64.4537 26.5952 65.1483 26.3224 65.9579 26.3224C66.7676 26.3224 67.4579 26.5952 68.0289 27.1406C68.6085 27.6776 68.8983 28.321 68.8983 29.071C68.8983 29.8295 68.6085 30.4815 68.0289 31.027C67.4579 31.5639 66.7676 31.8324 65.9579 31.8324ZM81.8773 61.7727C80.1131 61.7727 78.6003 61.5298 77.339 61.044C76.0861 60.5668 75.089 59.9148 74.3475 59.0881C73.606 58.2614 73.1245 57.3324 72.9029 56.3011L77.9398 55.6236C78.0932 56.0156 78.3361 56.3821 78.6685 56.723C79.0009 57.0639 79.4398 57.3366 79.9853 57.5412C80.5392 57.7543 81.2125 57.8608 82.0051 57.8608C83.1898 57.8608 84.1657 57.571 84.9327 56.9915C85.7083 56.4205 86.0961 55.4616 86.0961 54.1151V50.5227H85.8659C85.6273 51.0682 85.2694 51.5838 84.7921 52.0696C84.3148 52.5554 83.7012 52.9517 82.9512 53.2585C82.2012 53.5653 81.3063 53.7188 80.2665 53.7188C78.7921 53.7188 77.4498 53.3778 76.2395 52.696C75.0378 52.0057 74.079 50.9531 73.3631 49.5384C72.6557 48.1151 72.302 46.3168 72.302 44.1435C72.302 41.919 72.6642 40.0611 73.3887 38.5696C74.1131 37.0781 75.0762 35.9616 76.2779 35.2202C77.4881 34.4787 78.8134 34.108 80.2537 34.108C81.3532 34.108 82.2736 34.2955 83.0151 34.6705C83.7566 35.0369 84.3532 35.4972 84.8049 36.0511C85.2651 36.5966 85.6188 37.1335 85.8659 37.6619H86.0705V34.3636H91.4782V54.1918C91.4782 55.8622 91.0691 57.2599 90.2509 58.3849C89.4327 59.5099 88.2992 60.3537 86.8503 60.9162C85.41 61.4872 83.7523 61.7727 81.8773 61.7727ZM81.9924 49.6278C82.8702 49.6278 83.6117 49.4105 84.2168 48.9759C84.8304 48.5327 85.2992 47.902 85.623 47.0838C85.9554 46.2571 86.1216 45.2685 86.1216 44.1179C86.1216 42.9673 85.9597 41.9702 85.6358 41.1264C85.312 40.2741 84.8432 39.6136 84.2296 39.1449C83.6159 38.6761 82.8702 38.4418 81.9924 38.4418C81.0975 38.4418 80.3432 38.6847 79.7296 39.1705C79.1159 39.6477 78.6515 40.3125 78.3361 41.1648C78.0208 42.017 77.8631 43.0014 77.8631 44.1179C77.8631 45.2514 78.0208 46.2315 78.3361 47.0582C78.66 47.8764 79.1245 48.5114 79.7296 48.9631C80.3432 49.4062 81.0975 49.6278 81.9924 49.6278ZM101.258 42.6477V54H95.812V34.3636H101.002V37.8281H101.232C101.667 36.6861 102.396 35.7827 103.419 35.1179C104.441 34.4446 105.681 34.108 107.139 34.108C108.502 34.108 109.691 34.4062 110.705 35.0028C111.72 35.5994 112.508 36.4517 113.07 37.5597C113.633 38.6591 113.914 39.9716 113.914 41.4972V54H108.468V42.4688C108.477 41.267 108.17 40.3295 107.548 39.6562C106.926 38.9744 106.069 38.6335 104.978 38.6335C104.245 38.6335 103.597 38.7912 103.035 39.1065C102.481 39.4219 102.046 39.8821 101.731 40.4872C101.424 41.0838 101.267 41.804 101.258 42.6477ZM139.131 45.6392V34.3636H144.577V54H139.348V50.4332H139.144C138.7 51.5838 137.963 52.5085 136.932 53.2074C135.909 53.9062 134.661 54.2557 133.186 54.2557C131.874 54.2557 130.719 53.9574 129.722 53.3608C128.725 52.7642 127.945 51.9162 127.382 50.8168C126.828 49.7173 126.547 48.4006 126.539 46.8665V34.3636H131.985V45.8949C131.993 47.054 132.304 47.9702 132.918 48.6435C133.531 49.3168 134.354 49.6534 135.385 49.6534C136.041 49.6534 136.655 49.5043 137.226 49.206C137.797 48.8991 138.257 48.4474 138.607 47.8509C138.965 47.2543 139.139 46.517 139.131 45.6392ZM148.933 61.3636V34.3636H154.302V37.6619H154.545C154.784 37.1335 155.129 36.5966 155.581 36.0511C156.041 35.4972 156.638 35.0369 157.371 34.6705C158.112 34.2955 159.032 34.108 160.132 34.108C161.564 34.108 162.885 34.483 164.095 35.233C165.305 35.9744 166.273 37.0952 166.997 38.5952C167.721 40.0866 168.084 41.9574 168.084 44.2074C168.084 46.3977 167.73 48.2472 167.023 49.7557C166.324 51.2557 165.369 52.3935 164.159 53.169C162.957 53.9361 161.611 54.3196 160.119 54.3196C159.062 54.3196 158.163 54.1449 157.422 53.7955C156.689 53.446 156.088 53.0071 155.619 52.4787C155.15 51.9418 154.792 51.4006 154.545 50.8551H154.379V61.3636H148.933ZM154.264 44.1818C154.264 45.3494 154.426 46.3679 154.75 47.2372C155.074 48.1065 155.542 48.7841 156.156 49.2699C156.77 49.7472 157.515 49.9858 158.393 49.9858C159.28 49.9858 160.03 49.7429 160.643 49.2571C161.257 48.7628 161.721 48.081 162.037 47.2116C162.361 46.3338 162.523 45.3239 162.523 44.1818C162.523 43.0483 162.365 42.0511 162.05 41.1903C161.734 40.3295 161.27 39.6562 160.656 39.1705C160.042 38.6847 159.288 38.4418 158.393 38.4418C157.507 38.4418 156.757 38.6761 156.143 39.1449C155.538 39.6136 155.074 40.2784 154.75 41.1392C154.426 42 154.264 43.0142 154.264 44.1818Z" fill="white"/>
<defs>
<filter id="filter0_d_21_241" x="0" y="0" width="215" height="89" filterUnits="userSpaceOnUse" color-interpolation-filters="sRGB">
<feFlood flood-opacity="0" result="BackgroundImageFix"/>
<feColorMatrix in="SourceAlpha" type="matrix" values="0 0 0 0 0 0 0 0 0 0 0 0 0 0 0 0 0 0 127 0" result="hardAlpha"/>
<feMorphology radius="4" operator="dilate" in="SourceAlpha" result="effect1_dropShadow_21_241"/>
<feOffset dx="4" dy="4"/>
<feGaussianBlur stdDeviation="2"/>
<feComposite in2="hardAlpha" operator="out"/>
<feColorMatrix type="matrix" values="0 0 0 0 0 0 0 0 0 0 0 0 0 0 0 0 0 0 0.25 0"/>
<feBlend mode="normal" in2="BackgroundImageFix" result="effect1_dropShadow_21_241"/>
<feBlend mode="normal" in="SourceGraphic" in2="effect1_dropShadow_21_241" result="shape"/>
</filter>
<linearGradient id="paint0_linear_21_241" x1="203" y1="77" x2="4" y2="77" gradientUnits="userSpaceOnUse">
<stop stop-color="#AFA0FD"/>
<stop offset="1" stop-color="#FF9FF0"/>
</linearGradient>
</defs>
</svg>
